# xmcd CD database file
#
# Track frame offsets:
#	150
#	11553
#	22466
#	32750
#	43458
#	52582
#	60685
#	71102
#	84984
#	98029
#
# Disc length: 1478 seconds
#
# Revision: 0
# Processed by: cddbd v1.5.2PL0 Copyright (c) Steve Scherf et al.
# Submitted via: CDex 1.70beta1
#
DISCID=8305c40a
DTITLE=Jimmy Boyd - Christmas With Jimmy Boyd
DYEAR=1953
DGENRE=Jazz
TTITLE0=I Saw Mommy Kissing Santa Claus [1953]
TTITLE1=Santa Claus Is Coming To Town [1953]
TTITLE2=Winter Wonderland
TTITLE3=Here Comes Santa Claus
TTITLE4=Silent Night, Holy Night
TTITLE5=Jingle Bells
TTITLE6=Frosty, The Snowman
TTITLE7=The Little Match Girl
TTITLE8=Rudolph, The Red-Nosed Raindeer
TTITLE9=Dennis The Menance [with Rosemary Clooney]
EXTD=YEAR: 1953
EXTT0=
EXTT1=
EXTT2=
EXTT3=
EXTT4=
EXTT5=
EXTT6=
EXTT7=
EXTT8=
EXTT9=
PLAYORDER=
